<svg xmlns="http://www.w3.org/2000/svg" width="21" height="20" viewBox="0 0 21 20" fill="none">
  <g clip-path="url(#clip0_23_1663)">
    <path fill-rule="evenodd" clip-rule="evenodd" d="M20.4998 -0.400146H0.499756V19.5999H20.4998V-0.400146ZM11.1093 5.50374V8.10402L15.4034 6.4107V8.33446C15.4034 8.74713 15.1627 9.11615 14.8002 9.25909L11.1092 10.7146V8.79469C11.1068 8.3846 10.8666 8.01863 10.506 7.87642L7.41832 6.65883C7.05579 6.51586 6.81503 6.14684 6.81503 5.73418V3.81041L11.1093 5.50374ZM11.1093 10.7261V11.2272H11.1153V16.6611H9.34608V12.6413L7.41832 11.8811C7.05579 11.7382 6.81503 11.3692 6.81503 10.9565V9.03273L11.1093 10.7261Z" fill="#808080"/>
  </g>
  <defs>
    <clipPath id="clip0_23_1663">
      <rect x="0.5" width="20" height="20" rx="4.39286" fill="white"/>
    </clipPath>
  </defs>
</svg>